<!-- Generated by IcoMoon.io -->
<svg version="1.1" xmlns="http://www.w3.org/2000/svg" width="32" height="32" viewBox="0 0 32 32">
<title>state-beinvited</title>
<path d="M30.88 13.161l-4.018-1.12c0.446 0.254 1.339 0.713 2.331 0.814-0.315 0.115-0.683 0.205-1.065 0.253l-0.025 0.003 2.576 0.713c0.347 0.103 0.599 0.512 0.496 0.869l-2.526 9.767c0.098 0.411 0.146 0.919 0.048 1.381 0.216-0.21 0.385-0.467 0.491-0.754l0.005-0.014 1.090-4.183c-0.343-0.254-0.295-1.017-0.295-1.017s0.197 0.151 0.496 0.309l1.339-5.257c0.194-0.793-0.251-1.557-0.944-1.762zM3.502 7.093c0.098-0.357 0.496-0.613 0.843-0.51l22.469 6.171c-0.151-0.254-0.151-0.61-0.151-0.766l-21.275-5.815c0.149 0.203 0.345 0.407 0.546 0.562-0.398-0.153-1.143-0.409-1.538-0.869-0.695-0.103-1.39 0.306-1.538 1.019l-2.183 8.366c0.199 0.101 0.395 0.153 0.645 0.203l2.183-8.363zM27.755 25.429l-8.555-2.343c-0.735-0.15-1.579-0.236-2.443-0.236-0.311 0-0.619 0.011-0.924 0.033l0.041-0.002 11.73 3.214c0.085 0.035 0.184 0.055 0.287 0.055 0.020 0 0.039-0.001 0.058-0.002h-0.003c0.053-0.206 0.201-0.514 0.347-0.821-0.105 0.077-0.237 0.123-0.38 0.123-0.057 0-0.112-0.007-0.164-0.021l0.005 0.001zM1.321 18.16c-0.347-0.103-0.597-0.507-0.498-0.866l0.398-1.481c-0.247 0.055-0.496 0.055-0.743 0.055l-0.297 1.223c-0.032 0.112-0.050 0.241-0.050 0.374 0 0.634 0.411 1.171 0.981 1.36l0.010 0.003 5.851 1.63c0.398-0.048 0.992-0.151 1.39-0.357l-7.042-1.941zM15.927 22.165c-0.299 0.158-0.597 0.359-0.843 0.51l-7.042-1.938 0.446-0.613 0.496 0.153c0.050 0.258 0.199 0.459 0.398 0.514 0.247 0.048 0.546-0.053 0.843-0.155l5.703 1.529zM5.561 13.442l-0.843 3.214-0.745-0.203 0.793-3.086c-0.274 0.203-0.569 0.382-0.894 0.585l-0.023-0.866c1.093-0.688 1.911-1.429 2.43-2.194l-1.561-0.432 0.197-0.715 0.869 0.256c-0.022-0.449-0.057-0.854-0.106-1.254l0.008 0.082h0.793c0.048 0.482 0.075 0.942 0.075 1.376l0.667 0.178-0.171 0.638c-0.297 0.535-0.72 1.045-1.239 1.531v0.025c0.048 0.050 0.098 0.153 0.171 0.281 0.224-0.128 0.473-0.334 0.695-0.587l0.322 0.562c-0.212 0.221-0.457 0.408-0.727 0.552l-0.015 0.008c0.098 0.231 0.222 0.457 0.322 0.713l-0.597 0.537c-0.126-0.47-0.269-0.869-0.441-1.252l0.021 0.052zM10.693 12.754c0.151-0.231 0.325-0.512 0.496-0.843l-1.015-0.281-0.423 1.559 1.413 0.382-0.171 0.69c-0.373 0.791-0.869 1.426-1.488 1.886 0.347 0.482 0.768 0.944 1.312 1.403l-0.619 0.585c-0.511-0.451-0.954-0.962-1.322-1.526l-0.018-0.029c-0.604 0.318-1.308 0.544-2.053 0.635l-0.029 0.003-0.199-0.818c0.72-0.075 1.339-0.254 1.883-0.533-0.313-0.648-0.496-1.409-0.496-2.213 0-0.056 0.001-0.112 0.003-0.168v0.008l-0.249-0.078c-0.373 1.454-1.015 2.601-1.934 3.467l-0.446-0.713c0.745-0.715 1.314-1.707 1.662-2.983l0.768-2.987 1.81 0.512 0.247-0.944 0.77 0.206-0.249 0.942 1.762 0.487-0.101 0.382c-0.212 0.531-0.445 0.984-0.715 1.411l0.021-0.035-0.619-0.407zM8.983 12.983l0.398-1.554-1.045-0.281-0.421 1.529 1.067 0.306zM8.661 13.673c0 0.613 0.149 1.198 0.421 1.783 0.471-0.357 0.869-0.814 1.166-1.353l-1.586-0.43zM14.784 12.626c-0.278-0.65-0.576-1.202-0.917-1.724l0.026 0.042-0.645 0.357c0.395 0.638 0.695 1.198 0.869 1.71l0.667-0.384zM18.928 13.52l1.438 0.407-0.201 0.741-0.343-0.103c-0.272 0.891-0.599 1.659-0.997 2.297 0.153 0.51 0.251 1.093 0.35 1.733l-0.649 0.384c-0.105-0.789-0.181-1.276-0.264-1.76l0.047 0.332c-0.448 0.507-0.942 0.891-1.515 1.173l-0.222-0.741c0.571-0.254 1.090-0.688 1.515-1.298-0.145-0.513-0.297-0.937-0.473-1.347l0.027 0.072 0.496-0.357c0.146 0.304 0.272 0.613 0.37 0.894 0.224-0.459 0.446-0.969 0.619-1.582l-0.622-0.158c-0.294 0.423-0.637 0.785-1.029 1.089l-0.011 0.008-0.149-0.354-0.027 0.048-0.942-0.254 0.048 0.432 1.067 0.309-0.174 0.663-1.536-0.432-0.149 0.354 1.365 0.384c-0.249 0.967-0.473 1.557-0.647 1.758-0.199 0.183-0.446 0.233-0.745 0.155l-0.446-0.128-0.023-0.688 0.471 0.126c0.149 0.027 0.247 0 0.322-0.103 0.075-0.098 0.149-0.327 0.247-0.688l-0.818-0.229-0.199 0.304c-0.272 0.357-0.594 0.642-0.99 0.871l-0.274-0.693c0.297-0.178 0.544-0.379 0.768-0.661 0.196-0.265 0.363-0.568 0.487-0.893l0.009-0.026-0.693-0.178 0.174-0.663 1.090 0.306-0.050-0.434-0.695-0.206 0.619-2.398 0.745 0.206c0.098-0.178 0.197-0.384 0.274-0.587l0.743 0.306c-0.098 0.206-0.199 0.357-0.297 0.487l0.896 0.254-0.501 1.888c0.501-0.56 0.969-1.328 1.339-2.297l0.67 0.334c-0.174 0.331-0.35 0.663-0.519 0.944zM16.894 13.877l-1.090-0.306-0.101 0.409 1.090 0.306 0.101-0.409zM17.141 12.935l-1.090-0.309-0.098 0.409 1.090 0.306 0.098-0.407zM16.793 19.026c-0.496-0.123-1.065-0.304-1.71-0.482-0.407-0.119-0.761-0.292-1.079-0.515l0.012 0.008c-0.198-0.188-0.364-0.408-0.49-0.651l-0.006-0.014c-0.025-0.078-0.048-0.126-0.098-0.153l0.818-3.163-1.662-0.459-0.197 0.741 0.917 0.254-0.622 2.398c-0.322 0.103-0.768 0.432-1.289 0.994l0.395 0.688c0.571-0.633 0.917-0.942 1.065-0.914 0.101 0.023 0.199 0.126 0.274 0.304 0.161 0.34 0.407 0.618 0.712 0.811l0.008 0.005c0.347 0.178 0.793 0.357 1.314 0.514 0.72 0.199 1.239 0.352 1.513 0.427l1.858 0.514 0.4-0.743c-0.398-0.075-0.724-0.155-1.044-0.25l0.075 0.019c-0.521-0.153-0.917-0.256-1.166-0.331zM23.465 14.896c-0.318-0.613-0.656-1.138-1.036-1.629l0.018 0.025-0.697 0.407c0.45 0.587 0.8 1.122 1.022 1.607l0.693-0.409zM23.465 17.397l3.893 1.067-0.843 3.269c-0.126 0.51-0.469 0.715-0.965 0.558l-0.697-0.174v-0.768l0.619 0.233c0.174 0.048 0.272-0.027 0.322-0.206l0.075-0.309-2.432-0.661-0.343 1.298-0.745-0.206 1.115-4.103zM23.888 18.722l2.43 0.665 0.121-0.487-2.43-0.665-0.121 0.487zM23.611 19.794l2.432 0.661 0.121-0.459-2.43-0.661-0.123 0.459zM28.347 16.069l0.174-0.635-1.959-0.535 0.126-0.485-0.745-0.206-0.121 0.487-1.883-0.535-0.174 0.638 1.906 0.535-0.098 0.407-1.563-0.432-0.174 0.638 1.563 0.432-0.098 0.405-2.135-0.583-0.174 0.665 5.035 1.376 0.174-0.665-2.155-0.585 0.098-0.407 1.662 0.455 0.174-0.635-1.662-0.457 0.098-0.409 1.931 0.533zM22.473 18.951c-0.375 0.233-0.67 0.407-0.816 0.51l0.914-3.493-1.861-0.512-0.197 0.768 1.115 0.302-0.795 3.063c-0.040 0.174-0.159 0.315-0.316 0.383l-0.004 0.001 0.098 0.791c0.642-0.254 1.262-0.535 1.861-0.919v-0.894z"></path>
</svg>
