<!-- Generated by IcoMoon.io -->
<svg version="1.1" xmlns="http://www.w3.org/2000/svg" width="32" height="32" viewBox="0 0 32 32">
<title>success</title>
<path d="M16 0c-8.823 0-16 7.177-16 15.999s7.177 16.001 16 16.001c8.824 0 16-7.179 16-16.001s-7.177-15.999-16-15.999zM23.787 11.424l-9.622 9.623c-0.132 0.13-0.313 0.211-0.513 0.211s-0.383-0.081-0.515-0.212l-4.924-4.921c-0.132-0.132-0.213-0.314-0.213-0.515 0-0.402 0.326-0.727 0.727-0.727 0.201 0 0.383 0.081 0.514 0.213l4.409 4.409 9.109-9.108c0.131-0.132 0.313-0.214 0.513-0.214s0.382 0.082 0.513 0.214v0c0.132 0.131 0.213 0.313 0.213 0.514s-0.081 0.382-0.213 0.514v0z"></path>
</svg>
