<!-- Generated by IcoMoon.io -->
<svg version="1.1" xmlns="http://www.w3.org/2000/svg" width="32" height="32" viewBox="0 0 32 32">
<title>warning1</title>
<path d="M16 0c-8.837 0-16 7.163-16 16s7.163 16 16 16v0c8.837 0 16-7.163 16-16s-7.163-16-16-16v0zM17.84 4.8l-0.72 16.4h-2.48l-0.8-16.4h4zM17.52 26.88c-0.48 0.402-1.040 0.638-1.68 0.638s-1.12-0.155-1.6-0.638c-0.442-0.372-0.721-0.926-0.721-1.545 0-0.019 0-0.037 0.001-0.056v0.003c0-0.642 0.24-1.2 0.72-1.602 0.403-0.395 0.956-0.638 1.566-0.638 0.012 0 0.024 0 0.036 0h-0.002c0.72 0 1.28 0.24 1.68 0.558 0.4 0.402 0.64 0.88 0.64 1.602 0 0.638-0.24 1.275-0.64 1.678z"></path>
</svg>
